<?xml version="1.0"?>
<svg xmlns="http://www.w3.org/2000/svg" xmlns:xlink="http://www.w3.org/1999/xlink" xmlns:svgjs="http://svgjs.com/svgjs" version="1.1" width="512" height="512" x="0" y="0" viewBox="0 0 64 64" style="enable-background:new 0 0 512 512" xml:space="preserve" class=""><g><path xmlns="http://www.w3.org/2000/svg" d="m24 60.079v-4.079h-5.828z" fill="#daa520" data-original="#000000" style="" class=""/><path xmlns="http://www.w3.org/2000/svg" d="m24.82 54h14.36l.4-2h-15.16z" fill="#daa520" data-original="#000000" style="" class=""/><path xmlns="http://www.w3.org/2000/svg" d="m48 48h-5.58l-1.2 6h6.78z" fill="#daa520" data-original="#000000" style="" class=""/><path xmlns="http://www.w3.org/2000/svg" d="m16 48v6h6.78l-1.2-6z" fill="#daa520" data-original="#000000" style="" class=""/><path xmlns="http://www.w3.org/2000/svg" d="m14 53h-7.919l3.199 4-3.199 4h15.747l-7.828-5.479z" fill="#daa520" data-original="#000000" style="" class=""/><path xmlns="http://www.w3.org/2000/svg" d="m50 53v2.521l-7.828 5.479h15.747l-3.199-4 3.199-4z" fill="#daa520" data-original="#000000" style="" class=""/><path xmlns="http://www.w3.org/2000/svg" d="m40 56v4.079l5.828-4.079z" fill="#daa520" data-original="#000000" style="" class=""/><path xmlns="http://www.w3.org/2000/svg" d="m35.538 48.208-3.538-6.192-3.538 6.192-5.144-1.715.702 3.507h15.96l.701-3.507zm-2.538-.208h-2v-2h2z" fill="#daa520" data-original="#000000" style="" class=""/><path xmlns="http://www.w3.org/2000/svg" d="m11.983 42.598.148-.085c.929 1.242 1.968 2.412 3.124 3.487h3.092c-1.714-1.323-3.209-2.843-4.481-4.511 2.265-1.423 3.028-4.385 1.679-6.721l-.5-.866-.866.5c-1.417.818-2.265 2.229-2.447 3.738-.358-.682-.684-1.379-.974-2.093 2.563-.784 4.071-3.452 3.371-6.062l-.259-.966-.966.259c-1.579.423-2.762 1.564-3.329 2.972-.165-.746-.296-1.503-.39-2.269 2.674-.1 4.815-2.283 4.815-4.981v-1h-1c-1.628 0-3.061.79-3.974 1.995.032-.765.104-1.524.208-2.278 2.605.59 5.233-.964 5.93-3.567l.259-.966-.966-.259c-1.571-.421-3.157-.029-4.35.896.228-.727.494-1.44.789-2.141 2.363 1.241 5.301.421 6.648-1.912l.5-.866-.866-.5c-1.41-.814-3.046-.846-4.439-.259.407-.643.849-1.266 1.317-1.87 1.961 1.815 5.015 1.784 6.922-.122l.707-.707-.707-.707c-1.184-1.184-2.813-1.638-4.348-1.387l-.324-.35h.694c3.866 0 7-3.134 7-7h-1c-3.76 0-6.819 2.967-6.984 6.687l-.696-.75c-.007.006-.013.013-.019.019.231-1.518-.223-3.121-1.392-4.29l-.707-.707-.707.707c-1.953 1.953-1.953 5.118 0 7.071l.126.126c-.592.749-1.139 1.53-1.643 2.336-.167-1.531-1.021-2.967-2.457-3.796l-.866-.5-.5.866c-1.381 2.391-.561 5.449 1.83 6.83l.159.092c-.378.875-.705 1.771-.986 2.683-.556-1.438-1.755-2.606-3.358-3.035l-.966-.259-.259.966c-.715 2.667.868 5.409 3.536 6.124l.175.047c-.139.939-.225 1.887-.26 2.842-.911-1.243-2.369-2.059-4.026-2.059h-1v1c0 2.761 2.239 5 5 5h.175c.108.948.268 1.882.476 2.802-1.199-.956-2.811-1.362-4.405-.935l-.966.259.259.966c.715 2.667 3.456 4.25 6.124 3.536l.155-.042c.348.881.745 1.74 1.188 2.576-1.403-.608-3.061-.583-4.487.241l-.866.5.5.866c1.381 2.39 4.439 3.21 6.83 1.829z" fill="#daa520" data-original="#000000" style="" class=""/><path xmlns="http://www.w3.org/2000/svg" d="m57 30c2.761 0 5-2.239 5-5v-1h-1c-1.657 0-3.115.816-4.025 2.057-.035-.955-.12-1.903-.26-2.842l.175-.047c2.667-.715 4.25-3.456 3.536-6.124l-.259-.966-.966.259c-1.603.43-2.802 1.597-3.358 3.035-.281-.912-.608-1.808-.986-2.683l.159-.092c2.391-1.381 3.211-4.439 1.83-6.83l-.5-.866-.866.5c-1.436.829-2.291 2.265-2.457 3.796-.504-.806-1.051-1.587-1.643-2.336l.126-.126c1.953-1.953 1.953-5.118 0-7.071l-.707-.707-.707.707c-1.169 1.169-1.623 2.772-1.392 4.29-.007-.006-.013-.013-.019-.019l-.696.75c-.166-3.718-3.225-6.685-6.985-6.685h-1c0 3.866 3.134 7 7 7h.694l-.325.35c-1.535-.252-3.164.203-4.348 1.387l-.707.707.707.707c1.906 1.906 4.96 1.937 6.922.122.468.604.91 1.227 1.317 1.87-1.393-.587-3.029-.556-4.439.259l-.866.5.5.866c1.347 2.333 4.285 3.153 6.648 1.912.296.701.561 1.415.789 2.141-1.193-.925-2.779-1.316-4.35-.896l-.966.259.259.966c.697 2.603 3.325 4.157 5.93 3.567.105.754.176 1.513.208 2.278-.912-1.205-2.345-1.995-3.973-1.995h-1v1c0 2.698 2.141 4.881 4.814 4.981-.094.766-.225 1.523-.39 2.269-.567-1.408-1.75-2.549-3.329-2.972l-.966-.259-.259.966c-.699 2.609.808 5.277 3.371 6.062-.29.714-.616 1.411-.974 2.093-.182-1.509-1.03-2.92-2.447-3.738l-.866-.5-.5.866c-1.349 2.336-.587 5.298 1.679 6.721-1.271 1.668-2.767 3.188-4.481 4.511h3.092c1.156-1.075 2.196-2.246 3.124-3.487l.148.085c2.391 1.381 5.449.561 6.83-1.83l.5-.866-.866-.5c-1.426-.823-3.084-.849-4.487-.241.443-.836.84-1.695 1.188-2.576l.155.042c2.667.715 5.409-.868 6.124-3.536l.259-.966-.966-.259c-1.594-.427-3.206-.021-4.405.935.208-.919.368-1.854.476-2.802h.176z" fill="#daa520" data-original="#000000" style="" class=""/></g></svg>
